<svg width="100" height="102" viewBox="0 0 100 102" fill="none" xmlns="http://www.w3.org/2000/svg">
<path d="M68.75 27C68.75 25.4087 68.8279 23.1252 70 22C71.1721 20.8748 72.8424 19.7574 74.5 19.7574H87.5C89.1576 19.7574 90.8279 20.8748 92 22C93.1721 23.1252 93.75 24.4087 93.75 26V96H96.875C97.7038 96 98.4987 96.316 99.0847 96.8786C99.6708 97.4412 100 98.2043 100 99C100 99.7956 99.6708 100.559 99.0847 101.121C98.4987 101.684 97.7038 102 96.875 102H3.125C2.2962 102 1.50134 101.684 0.915291 101.121C0.32924 100.559 0 99.7956 0 99C0 98.2043 0.32924 97.4412 0.915291 96.8786C1.50134 96.316 2.2962 96 3.125 96H6.25V78C6.25 76.4087 6.90848 74.8825 8.08058 73.7573C9.25268 72.6321 10.8424 72 12.5 72H25C26.6576 72 28.2473 72.6321 29.4194 73.7573C30.5915 74.8825 31.25 76.4087 31.25 78V96H37.5V54C37.5 52.4087 38.1585 50.8825 39.3306 49.7573C40.5027 48.6321 42.0924 48 43.75 48H56.25C57.9076 48 59.4973 48.6321 60.6694 49.7573C61.8415 50.8825 62.5 52.4087 62.5 54V96H68.75V27Z" fill="#1B6086"/>
<path d="M14.0196 54.7388C13.7492 54.2807 13.7875 53.6657 14.1261 53.029C14.4648 52.3923 15.076 51.7861 15.8253 51.3439L44.0782 34.6676C44.8275 34.2254 45.6535 33.9832 46.3746 33.9944C47.0956 34.0056 47.6526 34.2693 47.923 34.7274C48.1934 35.1855 48.1551 35.8006 47.8165 36.4372C47.4778 37.0739 46.8666 37.6801 46.1173 38.1224L31.9909 46.4605L17.8644 54.7986C17.1151 55.2409 16.2891 55.483 15.568 55.4718C14.847 55.4606 14.29 55.197 14.0196 54.7388Z" fill="#1B6086"/>
<path d="M49.3655 34.1012C49.0033 33.7115 48.936 33.0777 49.1782 32.339C49.4204 31.6004 49.9523 30.8175 50.657 30.1626L77.2267 5.46937C77.9314 4.81446 78.751 4.34117 79.5054 4.15362C80.2597 3.96607 80.887 4.07962 81.2491 4.4693C81.6113 4.85897 81.6787 5.49284 81.4365 6.23146C81.1943 6.97009 80.6623 7.75297 79.9577 8.40788L66.6728 20.7545L53.388 33.1011C52.6833 33.7561 51.8636 34.2293 51.1093 34.4169C50.3549 34.6044 49.7276 34.4909 49.3655 34.1012Z" fill="#1B6086"/>
<circle cx="48" cy="35" r="5" fill="#1B6086"/>
<circle cx="16" cy="54" r="5" fill="#1B6086"/>
<circle cx="81" cy="5" r="5" fill="#1B6086"/>
</svg>
