<svg width="100" height="100" viewBox="0 0 100 100" fill="none" xmlns="http://www.w3.org/2000/svg">
<g clip-path="url(#clip0_1273_258)">
<path d="M87.5 0H12.5C9.18479 0 6.00537 1.31696 3.66117 3.66117C1.31696 6.00537 0 9.18479 0 12.5L0 87.5C0 90.8152 1.31696 93.9946 3.66117 96.3388C6.00537 98.683 9.18479 100 12.5 100H87.5C90.8152 100 93.9946 98.683 96.3388 96.3388C98.683 93.9946 100 90.8152 100 87.5V12.5C100 9.18479 98.683 6.00537 96.3388 3.66117C93.9946 1.31696 90.8152 0 87.5 0V0ZM6.25 24.1063C6.25 21.15 9.05 18.75 12.5 18.75H87.5C90.95 18.75 93.75 21.15 93.75 24.1063V88.3937C93.75 91.35 90.95 93.75 87.5 93.75H12.5C9.05 93.75 6.25 91.35 6.25 88.3937V24.1063Z" fill="#1B6086"/>
<path d="M40.625 43.75C42.2826 43.75 43.8723 43.0915 45.0444 41.9194C46.2165 40.7473 46.875 39.1576 46.875 37.5C46.875 35.8424 46.2165 34.2527 45.0444 33.0806C43.8723 31.9085 42.2826 31.25 40.625 31.25C38.9674 31.25 37.3777 31.9085 36.2056 33.0806C35.0335 34.2527 34.375 35.8424 34.375 37.5C34.375 39.1576 35.0335 40.7473 36.2056 41.9194C37.3777 43.0915 38.9674 43.75 40.625 43.75ZM59.375 43.75C61.0326 43.75 62.6223 43.0915 63.7944 41.9194C64.9665 40.7473 65.625 39.1576 65.625 37.5C65.625 35.8424 64.9665 34.2527 63.7944 33.0806C62.6223 31.9085 61.0326 31.25 59.375 31.25C57.7174 31.25 56.1277 31.9085 54.9556 33.0806C53.7835 34.2527 53.125 35.8424 53.125 37.5C53.125 39.1576 53.7835 40.7473 54.9556 41.9194C56.1277 43.0915 57.7174 43.75 59.375 43.75ZM78.125 43.75C79.7826 43.75 81.3723 43.0915 82.5444 41.9194C83.7165 40.7473 84.375 39.1576 84.375 37.5C84.375 35.8424 83.7165 34.2527 82.5444 33.0806C81.3723 31.9085 79.7826 31.25 78.125 31.25C76.4674 31.25 74.8777 31.9085 73.7056 33.0806C72.5335 34.2527 71.875 35.8424 71.875 37.5C71.875 39.1576 72.5335 40.7473 73.7056 41.9194C74.8777 43.0915 76.4674 43.75 78.125 43.75ZM21.875 62.5C23.5326 62.5 25.1223 61.8415 26.2944 60.6694C27.4665 59.4973 28.125 57.9076 28.125 56.25C28.125 54.5924 27.4665 53.0027 26.2944 51.8306C25.1223 50.6585 23.5326 50 21.875 50C20.2174 50 18.6277 50.6585 17.4556 51.8306C16.2835 53.0027 15.625 54.5924 15.625 56.25C15.625 57.9076 16.2835 59.4973 17.4556 60.6694C18.6277 61.8415 20.2174 62.5 21.875 62.5ZM40.625 62.5C42.2826 62.5 43.8723 61.8415 45.0444 60.6694C46.2165 59.4973 46.875 57.9076 46.875 56.25C46.875 54.5924 46.2165 53.0027 45.0444 51.8306C43.8723 50.6585 42.2826 50 40.625 50C38.9674 50 37.3777 50.6585 36.2056 51.8306C35.0335 53.0027 34.375 54.5924 34.375 56.25C34.375 57.9076 35.0335 59.4973 36.2056 60.6694C37.3777 61.8415 38.9674 62.5 40.625 62.5ZM59.375 62.5C61.0326 62.5 62.6223 61.8415 63.7944 60.6694C64.9665 59.4973 65.625 57.9076 65.625 56.25C65.625 54.5924 64.9665 53.0027 63.7944 51.8306C62.6223 50.6585 61.0326 50 59.375 50C57.7174 50 56.1277 50.6585 54.9556 51.8306C53.7835 53.0027 53.125 54.5924 53.125 56.25C53.125 57.9076 53.7835 59.4973 54.9556 60.6694C56.1277 61.8415 57.7174 62.5 59.375 62.5ZM78.125 62.5C79.7826 62.5 81.3723 61.8415 82.5444 60.6694C83.7165 59.4973 84.375 57.9076 84.375 56.25C84.375 54.5924 83.7165 53.0027 82.5444 51.8306C81.3723 50.6585 79.7826 50 78.125 50C76.4674 50 74.8777 50.6585 73.7056 51.8306C72.5335 53.0027 71.875 54.5924 71.875 56.25C71.875 57.9076 72.5335 59.4973 73.7056 60.6694C74.8777 61.8415 76.4674 62.5 78.125 62.5ZM21.875 81.25C23.5326 81.25 25.1223 80.5915 26.2944 79.4194C27.4665 78.2473 28.125 76.6576 28.125 75C28.125 73.3424 27.4665 71.7527 26.2944 70.5806C25.1223 69.4085 23.5326 68.75 21.875 68.75C20.2174 68.75 18.6277 69.4085 17.4556 70.5806C16.2835 71.7527 15.625 73.3424 15.625 75C15.625 76.6576 16.2835 78.2473 17.4556 79.4194C18.6277 80.5915 20.2174 81.25 21.875 81.25ZM40.625 81.25C42.2826 81.25 43.8723 80.5915 45.0444 79.4194C46.2165 78.2473 46.875 76.6576 46.875 75C46.875 73.3424 46.2165 71.7527 45.0444 70.5806C43.8723 69.4085 42.2826 68.75 40.625 68.75C38.9674 68.75 37.3777 69.4085 36.2056 70.5806C35.0335 71.7527 34.375 73.3424 34.375 75C34.375 76.6576 35.0335 78.2473 36.2056 79.4194C37.3777 80.5915 38.9674 81.25 40.625 81.25ZM59.375 81.25C61.0326 81.25 62.6223 80.5915 63.7944 79.4194C64.9665 78.2473 65.625 76.6576 65.625 75C65.625 73.3424 64.9665 71.7527 63.7944 70.5806C62.6223 69.4085 61.0326 68.75 59.375 68.75C57.7174 68.75 56.1277 69.4085 54.9556 70.5806C53.7835 71.7527 53.125 73.3424 53.125 75C53.125 76.6576 53.7835 78.2473 54.9556 79.4194C56.1277 80.5915 57.7174 81.25 59.375 81.25Z" fill="#1B6086"/>
</g>
<defs>
<clipPath id="clip0_1273_258">
<rect width="100" height="100" fill="white"/>
</clipPath>
</defs>
</svg>
