<svg width="100" height="91" viewBox="0 0 100 91" fill="none" xmlns="http://www.w3.org/2000/svg">
<path d="M31.5 91C31.5 91 31.5 91 31.5 91C31.4995 91 27 90.9993 27 79.8C27 68.6 31.5 35 49.5 35C67.5 35 72 68.6 72 79.8C72 90.9993 67.5005 91 67.5 91C67.5 91 67.5 91 67.5 91H31.5Z" fill="#1B6086"/>
<path fill-rule="evenodd" clip-rule="evenodd" d="M23.3126 90C22.65 87.0033 22.3196 83.7177 22.3472 80.4008C22.3472 67.3939 25.3864 54.0031 31 44.6919C28.1981 42.8377 25.2789 41.9309 22.3472 42.0041C4.46943 42.0041 0 70.8016 0 80.4008C0 90 4.46943 90 4.46943 90H23.3126Z" fill="#1B6086"/>
<path d="M22 34C24.9174 34 27.7153 32.683 29.7782 30.3388C31.8411 27.9946 33 24.8152 33 21.5C33 18.1848 31.8411 15.0054 29.7782 12.6612C27.7153 10.317 24.9174 9 22 9C19.0826 9 16.2847 10.317 14.2218 12.6612C12.1589 15.0054 11 18.1848 11 21.5C11 24.8152 12.1589 27.9946 14.2218 30.3388C16.2847 32.683 19.0826 34 22 34Z" fill="#1B6086"/>
<path d="M49 30C52.1826 30 55.2348 28.4196 57.4853 25.6066C59.7357 22.7936 61 18.9782 61 15C61 11.0218 59.7357 7.20644 57.4853 4.3934C55.2348 1.58035 52.1826 0 49 0C45.8174 0 42.7652 1.58035 40.5147 4.3934C38.2643 7.20644 37 11.0218 37 15C37 18.9782 38.2643 22.7936 40.5147 25.6066C42.7652 28.4196 45.8174 30 49 30Z" fill="#1B6086"/>
<path fill-rule="evenodd" clip-rule="evenodd" d="M76.6874 91C77.35 87.9409 77.6804 84.5868 77.6528 81.2008C77.6528 67.923 74.6136 54.2531 69 44.748C71.8019 42.8551 74.7211 41.9295 77.6528 42.0042C95.5306 42.0042 100 71.4017 100 81.2008C100 91 95.5306 91 95.5306 91H76.6874Z" fill="#1B6086"/>
<path d="M76 35C78.9174 35 81.7153 33.683 83.7782 31.3388C85.8411 28.9946 87 25.8152 87 22.5C87 19.1848 85.8411 16.0054 83.7782 13.6612C81.7153 11.317 78.9174 10 76 10C73.0826 10 70.2847 11.317 68.2218 13.6612C66.1589 16.0054 65 19.1848 65 22.5C65 25.8152 66.1589 28.9946 68.2218 31.3388C70.2847 33.683 73.0826 35 76 35Z" fill="#1B6086"/>
</svg>
