<svg width="100" height="83" viewBox="0 0 100 83" fill="none" xmlns="http://www.w3.org/2000/svg">
<path d="M50 6.1438C43.8438 0.850048 34.9188 0.0625485 26.7938 0.875048C17.3313 1.8313 7.78125 5.07505 1.83125 7.7813C1.28531 8.0296 0.822346 8.42975 0.497631 8.934C0.172917 9.43825 0.000166071 10.0253 0 10.625L0 79.375C0.000144762 79.8979 0.131482 80.4124 0.381982 80.8713C0.632482 81.3303 0.994136 81.7191 1.43382 82.002C1.8735 82.285 2.37715 82.4531 2.89865 82.491C3.42014 82.5288 3.9428 82.4353 4.41875 82.2188C9.93125 79.7188 18.8125 76.7125 27.4188 75.8438C36.225 74.9563 43.6063 76.3876 47.5625 81.3251C47.8553 81.69 48.2264 81.9846 48.6482 82.187C49.0701 82.3894 49.5321 82.4945 50 82.4945C50.4679 82.4945 50.9299 82.3894 51.3518 82.187C51.7736 81.9846 52.1447 81.69 52.4375 81.3251C56.3938 76.3876 63.775 74.9563 72.575 75.8438C81.1875 76.7125 90.075 79.7188 95.5813 82.2188C96.0572 82.4353 96.5799 82.5288 97.1014 82.491C97.6228 82.4531 98.1265 82.285 98.5662 82.002C99.0059 81.7191 99.3675 81.3303 99.618 80.8713C99.8685 80.4124 99.9999 79.8979 100 79.375V10.625C99.9998 10.0253 99.8271 9.43825 99.5024 8.934C99.1777 8.42975 98.7147 8.0296 98.1687 7.7813C92.2188 5.07505 82.6688 1.8313 73.2063 0.875048C65.0813 0.0562985 56.1562 0.850048 50 6.1438Z" fill="#1B6086"/>
</svg>
