<svg width="100" height="100" viewBox="0 0 100 100" fill="none" xmlns="http://www.w3.org/2000/svg">
<g clip-path="url(#clip0_1273_270)">
<path d="M58.0813 0H25C21.6848 0 18.5054 1.31696 16.1612 3.66117C13.817 6.00537 12.5 9.18479 12.5 12.5V87.5C12.5 90.8152 13.817 93.9946 16.1612 96.3388C18.5054 98.683 21.6848 100 25 100H75C78.3152 100 81.4946 98.683 83.8388 96.3388C86.183 93.9946 87.5 90.8152 87.5 87.5V29.4187C87.4996 27.7613 86.8409 26.1718 85.6687 25L62.5 1.83125C61.3282 0.659067 59.7387 0.000353984 58.0813 0V0ZM59.375 21.875V9.375L78.125 28.125H65.625C63.9674 28.125 62.3777 27.4665 61.2056 26.2944C60.0335 25.1223 59.375 23.5326 59.375 21.875ZM40.625 34.375V38.3375L44.0562 36.3563C44.4118 36.1478 44.805 36.0118 45.2134 35.9559C45.6217 35.9001 46.037 35.9256 46.4355 36.0309C46.8339 36.1363 47.2076 36.3194 47.5349 36.5697C47.8623 36.8201 48.1369 37.1327 48.343 37.4896C48.5491 37.8465 48.6825 38.2407 48.7356 38.6493C48.7888 39.058 48.7605 39.4732 48.6525 39.8709C48.5445 40.2686 48.359 40.6411 48.1065 40.9668C47.854 41.2925 47.5395 41.5651 47.1812 41.7687L43.75 43.75L47.1812 45.7313C47.5395 45.9349 47.854 46.2075 48.1065 46.5332C48.359 46.8589 48.5445 47.2314 48.6525 47.6291C48.7605 48.0268 48.7888 48.442 48.7356 48.8507C48.6825 49.2593 48.5491 49.6535 48.343 50.0104C48.1369 50.3673 47.8623 50.6799 47.5349 50.9303C47.2076 51.1806 46.8339 51.3637 46.4355 51.4691C46.037 51.5744 45.6217 51.5999 45.2134 51.5441C44.805 51.4882 44.4118 51.3522 44.0562 51.1437L40.625 49.1625V53.125C40.625 53.9538 40.2958 54.7487 39.7097 55.3347C39.1237 55.9208 38.3288 56.25 37.5 56.25C36.6712 56.25 35.8763 55.9208 35.2903 55.3347C34.7042 54.7487 34.375 53.9538 34.375 53.125V49.1625L30.9438 51.1437C30.5882 51.3522 30.195 51.4882 29.7866 51.5441C29.3783 51.5999 28.963 51.5744 28.5645 51.4691C28.1661 51.3637 27.7924 51.1806 27.4651 50.9303C27.1377 50.6799 26.8631 50.3673 26.657 50.0104C26.4509 49.6535 26.3175 49.2593 26.2644 48.8507C26.2112 48.442 26.2395 48.0268 26.3475 47.6291C26.4555 47.2314 26.641 46.8589 26.8935 46.5332C27.146 46.2075 27.4605 45.9349 27.8188 45.7313L31.25 43.75L27.8188 41.7687C27.1069 41.3514 26.5889 40.6694 26.378 39.8716C26.1671 39.0738 26.2803 38.225 26.6929 37.5103C27.1055 36.7957 27.784 36.2732 28.5804 36.057C29.3768 35.8408 30.2264 35.9484 30.9438 36.3563L34.375 38.3375V34.375C34.375 33.5462 34.7042 32.7513 35.2903 32.1653C35.8763 31.5792 36.6712 31.25 37.5 31.25C38.3288 31.25 39.1237 31.5792 39.7097 32.1653C40.2958 32.7513 40.625 33.5462 40.625 34.375ZM28.125 62.5H59.375C60.2038 62.5 60.9987 62.8292 61.5847 63.4153C62.1708 64.0013 62.5 64.7962 62.5 65.625C62.5 66.4538 62.1708 67.2487 61.5847 67.8347C60.9987 68.4208 60.2038 68.75 59.375 68.75H28.125C27.2962 68.75 26.5013 68.4208 25.9153 67.8347C25.3292 67.2487 25 66.4538 25 65.625C25 64.7962 25.3292 64.0013 25.9153 63.4153C26.5013 62.8292 27.2962 62.5 28.125 62.5ZM28.125 75H59.375C60.2038 75 60.9987 75.3292 61.5847 75.9153C62.1708 76.5013 62.5 77.2962 62.5 78.125C62.5 78.9538 62.1708 79.7487 61.5847 80.3347C60.9987 80.9208 60.2038 81.25 59.375 81.25H28.125C27.2962 81.25 26.5013 80.9208 25.9153 80.3347C25.3292 79.7487 25 78.9538 25 78.125C25 77.2962 25.3292 76.5013 25.9153 75.9153C26.5013 75.3292 27.2962 75 28.125 75Z" fill="#1B6086"/>
</g>
<defs>
<clipPath id="clip0_1273_270">
<rect width="100" height="100" fill="white"/>
</clipPath>
</defs>
</svg>
