<svg width="100" height="100" viewBox="0 0 100 100" fill="none" xmlns="http://www.w3.org/2000/svg">
<g clip-path="url(#clip0_10_2)">
<mask id="path-1-inside-1_10_2" fill="white">
<path d="M75.85 2.03749C77.2316 1.69188 78.6738 1.6656 80.0671 1.96063C81.4604 2.25566 82.7682 2.86426 83.8911 3.74021C85.0141 4.61616 85.9227 5.73644 86.548 7.01601C87.1733 8.29558 87.4989 9.7008 87.5 11.125V18.75H90.625C93.1114 18.75 95.496 19.7377 97.2541 21.4959C99.0123 23.254 100 25.6386 100 28.125V84.375C100 86.8614 99.0123 89.246 97.2541 91.0041C95.496 92.7623 93.1114 93.75 90.625 93.75H9.375C6.8886 93.75 4.50403 92.7623 2.74587 91.0041C0.987721 89.246 6.13073e-07 86.8614 6.13073e-07 84.375V28.125C-0.000871629 25.7116 0.929015 23.3908 2.59611 21.6457C4.2632 19.9006 6.53907 18.8656 8.95 18.7562L75.85 2.03749ZM34.7625 18.75H81.25V11.125C81.2489 10.6508 81.14 10.1831 80.9314 9.75734C80.7228 9.33153 80.42 8.95877 80.046 8.6673C79.6721 8.37582 79.2367 8.17326 78.7728 8.07498C78.3089 7.97669 77.8288 7.98524 77.3687 8.09998L34.7625 18.75ZM9.375 25C8.5462 25 7.75134 25.3292 7.16529 25.9153C6.57924 26.5013 6.25 27.2962 6.25 28.125V84.375C6.25 85.2038 6.57924 85.9986 7.16529 86.5847C7.75134 87.1707 8.5462 87.5 9.375 87.5H90.625C91.4538 87.5 92.2487 87.1707 92.8347 86.5847C93.4208 85.9986 93.75 85.2038 93.75 84.375V28.125C93.75 27.2962 93.4208 26.5013 92.8347 25.9153C92.2487 25.3292 91.4538 25 90.625 25H9.375Z"/>
</mask>
<path d="M75.85 2.03749C77.2316 1.69188 78.6738 1.6656 80.0671 1.96063C81.4604 2.25566 82.7682 2.86426 83.8911 3.74021C85.0141 4.61616 85.9227 5.73644 86.548 7.01601C87.1733 8.29558 87.4989 9.7008 87.5 11.125V18.75H90.625C93.1114 18.75 95.496 19.7377 97.2541 21.4959C99.0123 23.254 100 25.6386 100 28.125V84.375C100 86.8614 99.0123 89.246 97.2541 91.0041C95.496 92.7623 93.1114 93.75 90.625 93.75H9.375C6.8886 93.75 4.50403 92.7623 2.74587 91.0041C0.987721 89.246 6.13073e-07 86.8614 6.13073e-07 84.375V28.125C-0.000871629 25.7116 0.929015 23.3908 2.59611 21.6457C4.2632 19.9006 6.53907 18.8656 8.95 18.7562L75.85 2.03749ZM34.7625 18.75H81.25V11.125C81.2489 10.6508 81.14 10.1831 80.9314 9.75734C80.7228 9.33153 80.42 8.95877 80.046 8.6673C79.6721 8.37582 79.2367 8.17326 78.7728 8.07498C78.3089 7.97669 77.8288 7.98524 77.3687 8.09998L34.7625 18.75ZM9.375 25C8.5462 25 7.75134 25.3292 7.16529 25.9153C6.57924 26.5013 6.25 27.2962 6.25 28.125V84.375C6.25 85.2038 6.57924 85.9986 7.16529 86.5847C7.75134 87.1707 8.5462 87.5 9.375 87.5H90.625C91.4538 87.5 92.2487 87.1707 92.8347 86.5847C93.4208 85.9986 93.75 85.2038 93.75 84.375V28.125C93.75 27.2962 93.4208 26.5013 92.8347 25.9153C92.2487 25.3292 91.4538 25 90.625 25H9.375Z" fill="#1B6086"/>
<path d="M75.85 2.03749L102.762 109.726L102.774 109.723L102.786 109.72L75.85 2.03749ZM87.5 11.125H198.5V11.0819L198.5 11.0388L87.5 11.125ZM87.5 18.75H-23.5V129.75H87.5V18.75ZM100 28.125L211 28.125L100 28.125ZM100 84.375H211H100ZM90.625 93.75L90.625 204.75L90.625 93.75ZM9.375 93.75V204.75V93.75ZM6.13073e-07 84.375L-111 84.375L6.13073e-07 84.375ZM6.13073e-07 28.125H111V28.1049L111 28.0849L6.13073e-07 28.125ZM8.95 18.7562L13.982 129.642L25.082 129.138L35.862 126.444L8.95 18.7562ZM34.7625 18.75L7.84476 -88.9368L34.7625 129.75V18.75ZM81.25 18.75V129.75H192.25V18.75H81.25ZM81.25 11.125H192.25V10.9987L192.25 10.8724L81.25 11.125ZM77.3687 8.09998L50.5065 -99.6006L50.4787 -99.5937L50.451 -99.5868L77.3687 8.09998ZM9.375 25V136V25ZM6.25 28.125H-104.75H6.25ZM6.25 84.375L-104.75 84.375L6.25 84.375ZM90.625 25L90.625 136L90.625 25ZM102.786 109.72C87.8093 113.466 72.1758 113.751 57.0725 110.553L103.062 -106.631C85.1718 -110.42 66.6539 -110.082 48.914 -105.645L102.786 109.72ZM57.0725 110.553C41.9693 107.355 27.7931 100.757 15.6203 91.2621L152.162 -83.7817C137.743 -95.029 120.952 -102.843 103.062 -106.631L57.0725 110.553ZM15.6203 91.2621C3.44743 81.7668 -6.40203 69.6229 -13.1804 55.7524L186.276 -41.7204C178.247 -58.15 166.581 -72.5345 152.162 -83.7817L15.6203 91.2621ZM-13.1804 55.7524C-19.9588 41.8819 -23.488 26.6494 -23.5 11.2112L198.5 11.0388C198.486 -7.24778 194.305 -25.2908 186.276 -41.7204L-13.1804 55.7524ZM-23.5 11.125V18.75H198.5V11.125H-23.5ZM87.5 129.75H90.625V-92.25H87.5V129.75ZM90.625 129.75C63.6724 129.75 37.8237 119.043 18.7653 99.9847L175.743 -56.993C153.168 -79.5677 122.55 -92.25 90.625 -92.25V129.75ZM18.7653 99.9847C-0.29312 80.9263 -11 55.0776 -11 28.125L211 28.125C211 -3.80044 198.318 -34.4183 175.743 -56.993L18.7653 99.9847ZM-11 28.125V84.375H211V28.125H-11ZM-11 84.375C-11 57.4224 -0.293146 31.5737 18.7653 12.5153L175.743 169.493C198.318 146.918 211 116.3 211 84.375L-11 84.375ZM18.7653 12.5153C37.8237 -6.54316 63.6724 -17.25 90.625 -17.25L90.625 204.75C122.55 204.75 153.168 192.068 175.743 169.493L18.7653 12.5153ZM90.625 -17.25H9.375V204.75H90.625V-17.25ZM9.375 -17.25C36.3276 -17.25 62.1763 -6.54315 81.2347 12.5153L-75.743 169.493C-53.1683 192.068 -22.5504 204.75 9.375 204.75L9.375 -17.25ZM81.2347 12.5153C100.293 31.5737 111 57.4224 111 84.375L-111 84.375C-111 116.3 -98.3177 146.918 -75.743 169.493L81.2347 12.5153ZM111 84.375V28.125H-111V84.375H111ZM111 28.0849C111.009 54.2463 100.929 79.4035 82.8582 98.3203L-77.666 -55.0289C-99.0714 -32.6219 -111.011 -2.82311 -111 28.1651L111 28.0849ZM82.8582 98.3203C64.7869 117.237 40.1165 128.456 13.982 129.642L3.91801 -92.1296C-27.0383 -90.7249 -56.2605 -77.4359 -77.666 -55.0289L82.8582 98.3203ZM35.862 126.444L102.762 109.726L48.938 -105.651L-17.962 -88.9319L35.862 126.444ZM34.7625 129.75H81.25V-92.25H34.7625V129.75ZM192.25 18.75V11.125H-29.75V18.75H192.25ZM192.25 10.8724C192.21 -6.44322 188.231 -23.5233 180.613 -39.0741L-18.7506 58.5888C-25.9513 43.8896 -29.7125 27.7449 -29.7497 11.3776L192.25 10.8724ZM180.613 -39.0741C172.995 -54.6248 161.939 -68.2378 148.281 -78.8824L11.8108 96.217C-1.09886 86.1554 -11.5499 73.2878 -18.7506 58.5888L180.613 -39.0741ZM148.281 -78.8824C134.623 -89.5273 118.722 -96.9245 101.782 -100.514L55.7631 116.664C39.7511 113.271 24.7208 106.279 11.8108 96.217L148.281 -78.8824ZM101.782 -100.514C84.8425 -104.103 67.3079 -103.791 50.5065 -99.6006L104.231 115.801C88.3498 119.762 71.7754 120.057 55.7631 116.664L101.782 -100.514ZM50.451 -99.5868L7.84476 -88.9368L61.6802 126.437L104.286 115.787L50.451 -99.5868ZM9.375 -86C-20.8929 -86 -49.921 -73.9761 -71.3236 -52.5736L85.6541 104.404C65.4237 124.635 37.9853 136 9.375 136L9.375 -86ZM-71.3236 -52.5736C-92.7261 -31.171 -104.75 -2.14291 -104.75 28.125L117.25 28.125C117.25 56.7353 105.885 84.1737 85.6541 104.404L-71.3236 -52.5736ZM-104.75 28.125V84.375H117.25V28.125H-104.75ZM-104.75 84.375C-104.75 114.643 -92.7262 143.671 -71.3236 165.074L85.6541 8.09585C105.885 28.3264 117.25 55.7649 117.25 84.375L-104.75 84.375ZM-71.3236 165.074C-49.9208 186.476 -20.8926 198.5 9.375 198.5V-23.5C37.985 -23.5 65.4235 -12.1348 85.6541 8.09585L-71.3236 165.074ZM9.375 198.5H90.625V-23.5H9.375V198.5ZM90.625 198.5C120.893 198.5 149.921 186.476 171.324 165.074L14.3459 8.09585C34.5766 -12.1349 62.0151 -23.5 90.625 -23.5V198.5ZM171.324 165.074C192.726 143.671 204.75 114.643 204.75 84.375H-17.25C-17.25 55.7651 -5.88484 28.3265 14.3459 8.09585L171.324 165.074ZM204.75 84.375V28.125H-17.25V84.375H204.75ZM204.75 28.125C204.75 -2.14271 192.726 -31.1709 171.324 -52.5736L14.3459 104.404C-5.88473 84.1735 -17.25 56.7351 -17.25 28.125H204.75ZM171.324 -52.5736C149.921 -73.9762 120.893 -86 90.625 -86L90.625 136C62.0148 136 34.5764 124.635 14.3459 104.404L171.324 -52.5736ZM90.625 -86H9.375V136H90.625V-86Z" fill="#1B6086" mask="url(#path-1-inside-1_10_2)"/>
<rect x="3" y="25" width="93" height="64" fill="#1B6086"/>
</g>
<defs>
<clipPath id="clip0_10_2">
<rect width="100" height="100" fill="white"/>
</clipPath>
</defs>
</svg>
