<svg width="100" height="100" viewBox="0 0 100 100" fill="none" xmlns="http://www.w3.org/2000/svg">
<g clip-path="url(#clip0_1273_272)">
<path d="M50 6.25C41.712 6.25 33.7634 9.5424 27.9029 15.4029C22.0424 21.2634 18.75 29.212 18.75 37.5V43.75H25C26.6576 43.75 28.2473 44.4085 29.4194 45.5806C30.5915 46.7527 31.25 48.3424 31.25 50V68.75C31.25 70.4076 30.5915 71.9973 29.4194 73.1694C28.2473 74.3415 26.6576 75 25 75H18.75C17.0924 75 15.5027 74.3415 14.3306 73.1694C13.1585 71.9973 12.5 70.4076 12.5 68.75V37.5C12.5 32.5754 13.47 27.6991 15.3545 23.1494C17.2391 18.5997 20.0013 14.4657 23.4835 10.9835C26.9657 7.5013 31.0997 4.73907 35.6494 2.85452C40.1991 0.969966 45.0754 0 50 0C54.9246 0 59.8009 0.969966 64.3506 2.85452C68.9003 4.73907 73.0343 7.5013 76.5165 10.9835C79.9987 14.4657 82.7609 18.5997 84.6455 23.1494C86.53 27.6991 87.5 32.5754 87.5 37.5V75C87.5 79.144 85.8538 83.1183 82.9235 86.0485C79.9933 88.9788 76.019 90.625 71.875 90.625H58.5375C57.989 91.5751 57.2 92.3641 56.2499 92.9126C55.2998 93.4612 54.2221 93.75 53.125 93.75H46.875C45.2174 93.75 43.6277 93.0915 42.4556 91.9194C41.2835 90.7473 40.625 89.1576 40.625 87.5C40.625 85.8424 41.2835 84.2527 42.4556 83.0806C43.6277 81.9085 45.2174 81.25 46.875 81.25H53.125C54.2221 81.25 55.2998 81.5388 56.2499 82.0874C57.2 82.6359 57.989 83.4249 58.5375 84.375H71.875C74.3614 84.375 76.746 83.3873 78.5041 81.6291C80.2623 79.871 81.25 77.4864 81.25 75H75C73.3424 75 71.7527 74.3415 70.5806 73.1694C69.4085 71.9973 68.75 70.4076 68.75 68.75V50C68.75 48.3424 69.4085 46.7527 70.5806 45.5806C71.7527 44.4085 73.3424 43.75 75 43.75H81.25V37.5C81.25 33.3962 80.4417 29.3326 78.8712 25.5411C77.3008 21.7497 74.9989 18.3047 72.0971 15.4029C69.1953 12.5011 65.7503 10.1992 61.9589 8.62877C58.1674 7.05831 54.1038 6.25 50 6.25Z" fill="#1B6086"/>
</g>
<defs>
<clipPath id="clip0_1273_272">
<rect width="100" height="100" fill="white"/>
</clipPath>
</defs>
</svg>
