<svg width="100" height="100" viewBox="0 0 100 100" fill="none" xmlns="http://www.w3.org/2000/svg">
<path d="M31.3476 31.6526C32.8605 29.8773 33.5381 27.6762 33.2449 25.4898C32.9516 23.3033 31.7092 21.2926 29.766 19.8601C27.8229 18.4275 25.3224 17.6787 22.7648 17.7634C20.2073 17.8482 17.7812 18.7602 15.972 20.3171C14.1628 21.874 13.104 23.9609 13.0073 26.1603C12.9105 28.3597 13.7831 30.5094 15.4504 32.1794C17.1177 33.8493 19.4567 34.9163 21.9995 35.1669C24.5424 35.4175 27.1015 34.8332 29.1649 33.531H29.1633C29.2102 33.5847 29.2602 33.6358 29.3164 33.6855L35.3318 38.8583C35.6248 39.1105 36.0222 39.2522 36.4367 39.2523C36.8512 39.2524 37.2487 39.1109 37.5419 38.859C37.8351 38.6071 37.9999 38.2653 38 37.9089C38.0001 37.5525 37.8356 37.2106 37.5427 36.9585L31.5273 31.7856C31.4714 31.737 31.4113 31.6921 31.3476 31.6513V31.6526ZM31.7507 26.4878C31.7507 27.4583 31.5284 28.4192 31.0966 29.3158C30.6647 30.2124 30.0317 31.027 29.2337 31.7132C28.4358 32.3994 27.4884 32.9437 26.4458 33.3151C25.4032 33.6865 24.2858 33.8776 23.1573 33.8776C22.0288 33.8776 20.9113 33.6865 19.8687 33.3151C18.8261 32.9437 17.8788 32.3994 17.0808 31.7132C16.2828 31.027 15.6498 30.2124 15.218 29.3158C14.7861 28.4192 14.5638 27.4583 14.5638 26.4878C14.5638 24.528 15.4692 22.6483 17.0808 21.2625C18.6924 19.8766 20.8782 19.0981 23.1573 19.0981C25.4364 19.0981 27.6222 19.8766 29.2337 21.2625C30.8453 22.6483 31.7507 24.528 31.7507 26.4878Z" fill="#1B6086"/>
<path d="M90.625 8.33333C91.4538 8.33333 92.2487 8.77232 92.8347 9.55372C93.4208 10.3351 93.75 11.3949 93.75 12.5V87.5C93.75 88.6051 93.4208 89.6649 92.8347 90.4463C92.2487 91.2277 91.4538 91.6667 90.625 91.6667H9.375C8.5462 91.6667 7.75134 91.2277 7.16529 90.4463C6.57924 89.6649 6.25 88.6051 6.25 87.5V12.5C6.25 11.3949 6.57924 10.3351 7.16529 9.55372C7.75134 8.77232 8.5462 8.33333 9.375 8.33333H90.625ZM9.375 0C6.8886 0 4.50403 1.31696 2.74587 3.66117C0.98772 6.00537 0 9.18479 0 12.5L0 87.5C0 90.8152 0.98772 93.9946 2.74587 96.3388C4.50403 98.683 6.8886 100 9.375 100H90.625C93.1114 100 95.496 98.683 97.2541 96.3388C99.0123 93.9946 100 90.8152 100 87.5V12.5C100 9.18479 99.0123 6.00537 97.2541 3.66117C95.496 1.31696 93.1114 0 90.625 0H9.375Z" fill="#1B6086"/>
<path d="M43.75 49.8832C43.75 49.1086 44.0792 48.3658 44.6653 47.8181C45.2513 47.2703 46.0462 46.9626 46.875 46.9626H78.125C78.9538 46.9626 79.7487 47.2703 80.3347 47.8181C80.9208 48.3658 81.25 49.1086 81.25 49.8832C81.25 50.6578 80.9208 51.4006 80.3347 51.9484C79.7487 52.4961 78.9538 52.8038 78.125 52.8038H62.5H46.875C46.0462 52.8038 45.2513 52.4961 44.6653 51.9484C44.0792 51.4006 43.75 50.6578 43.75 49.8832ZM34.4 44.8949C34.691 45.1662 34.9219 45.4885 35.0795 45.8433C35.237 46.1981 35.3181 46.5785 35.3181 46.9626C35.3181 47.3468 35.237 47.7272 35.0795 48.082C34.9219 48.4368 34.691 48.7591 34.4 49.0304L25.025 57.7921C24.7347 58.0641 24.3899 58.2799 24.0102 58.4271C23.6305 58.5743 23.2235 58.6501 22.8125 58.6501C22.4015 58.6501 21.9944 58.5743 21.6148 58.4271C21.2351 58.2799 20.8903 58.0641 20.6 57.7921L17.475 54.8715C17.1844 54.6 16.954 54.2776 16.7967 53.9228C16.6395 53.568 16.5585 53.1878 16.5585 52.8038C16.5585 52.0282 16.8882 51.2844 17.475 50.736C18.0618 50.1876 18.8576 49.8795 19.6875 49.8795C20.5173 49.8795 21.3132 50.1876 21.9 50.736L22.8125 51.5947L29.975 44.8949C30.2653 44.6229 30.6101 44.4071 30.9898 44.2599C31.3694 44.1127 31.7765 44.0369 32.1875 44.0369C32.5985 44.0369 33.0056 44.1127 33.3852 44.2599C33.7649 44.4071 34.1097 44.6229 34.4 44.8949ZM43.75 73.2477C43.75 72.4731 44.0792 71.7303 44.6653 71.1825C45.2513 70.6348 46.0462 70.3271 46.875 70.3271H78.125C78.9538 70.3271 79.7487 70.6348 80.3347 71.1825C80.9208 71.7303 81.25 72.4731 81.25 73.2477C81.25 74.0223 80.9208 74.7651 80.3347 75.3128C79.7487 75.8606 78.9538 76.1683 78.125 76.1683H46.875C46.0462 76.1683 45.2513 75.8606 44.6653 75.3128C44.0792 74.7651 43.75 74.0223 43.75 73.2477ZM34.4 68.2594C34.691 68.5307 34.9219 68.853 35.0795 69.2078C35.237 69.5626 35.3181 69.943 35.3181 70.3271C35.3181 70.7113 35.237 71.0917 35.0795 71.4465C34.9219 71.8013 34.691 72.1236 34.4 72.3949L25.025 81.1566C24.7347 81.4286 24.3899 81.6443 24.0102 81.7916C23.6305 81.9388 23.2235 82.0146 22.8125 82.0146C22.4015 82.0146 21.9944 81.9388 21.6148 81.7916C21.2351 81.6443 20.8903 81.4286 20.6 81.1566L17.475 78.236C17.1844 77.9645 16.954 77.6421 16.7967 77.2873C16.6395 76.9325 16.5585 76.5523 16.5585 76.1683C16.5585 75.7842 16.6395 75.404 16.7967 75.0492C16.954 74.6944 17.1844 74.372 17.475 74.1005C17.7655 73.829 18.1105 73.6136 18.4901 73.4666C18.8697 73.3196 19.2766 73.244 19.6875 73.244C20.0984 73.244 20.5053 73.3196 20.8849 73.4666C21.2645 73.6136 21.6094 73.829 21.9 74.1005L22.8125 74.9591L29.975 68.2594C30.2653 67.9874 30.6101 67.7716 30.9898 67.6244C31.3694 67.4771 31.7765 67.4014 32.1875 67.4014C32.5985 67.4014 33.0056 67.4771 33.3852 67.6244C33.7649 67.7716 34.1097 67.9874 34.4 68.2594Z" fill="#1B6086"/>
<path d="M44 30.9579C44 30.1833 44.3292 29.4405 44.9153 28.8928C45.5013 28.3451 46.2962 28.0374 47.125 28.0374H78.375C79.2038 28.0374 79.9987 28.3451 80.5847 28.8928C81.1708 29.4405 81.5 30.1833 81.5 30.9579C81.5 31.7325 81.1708 32.4754 80.5847 33.0231C79.9987 33.5708 79.2038 33.8785 78.375 33.8785H62.75H47.125C46.2962 33.8785 45.5013 33.5708 44.9153 33.0231C44.3292 32.4754 44 31.7325 44 30.9579Z" fill="#1B6086"/>
</svg>
