<svg width="15" height="13" viewBox="0 0 15 13" fill="none" xmlns="http://www.w3.org/2000/svg">
<path d="M10.6688 6.68781C10.6688 6.53691 10.6688 6.40228 10.6688 6.26766C10.6688 5.38149 10.6698 4.49533 10.6683 3.60966C10.6678 3.03812 10.3064 2.66285 9.74509 2.66087C8.65942 2.65742 7.57375 2.66334 6.48807 2.65791C5.92192 2.65545 5.38125 2.21755 5.23995 1.66474C5.09625 1.10257 5.32406 0.488124 5.82292 0.204078C6.01901 0.0926301 6.26171 0.0142217 6.48375 0.0112629C7.95919 -0.00550362 9.43463 -0.00155855 10.9101 0.00435906C12.1466 0.0092904 13.2318 1.08284 13.2539 2.35562C13.2775 3.72111 13.2621 5.08758 13.2636 6.45357C13.2636 6.52606 13.2636 6.59855 13.2636 6.68731C13.6649 6.6094 14.045 6.53099 14.4266 6.46294C14.7928 6.39784 15.0826 6.72035 14.9774 7.07985C14.9495 7.17502 14.8846 7.26724 14.8154 7.33924C13.9998 8.182 13.1814 9.02181 12.361 9.85964C12.0967 10.1294 11.8391 10.1269 11.5757 9.85767C10.7558 9.01934 9.93781 8.17904 9.11983 7.33874C8.92231 7.13607 8.88194 6.91859 8.99488 6.70556C9.10494 6.49795 9.29189 6.41707 9.56247 6.46885C9.92676 6.53789 10.2891 6.61236 10.6688 6.68781Z" fill="#00B4FF"/>
<path d="M1.73581 6.31507C1.33499 6.3925 0.954352 6.46795 0.572756 6.53797C0.350719 6.5789 0.173377 6.49507 0.0671648 6.31162C-0.0390478 6.12768 -0.0188626 5.90183 0.121473 5.72824C0.152231 5.69027 0.186354 5.65575 0.220476 5.62123C1.01347 4.80756 1.80646 3.9934 2.59993 3.18022C2.9128 2.85968 3.14877 2.85968 3.4626 3.18121C4.26472 4.00326 5.06492 4.8268 5.86848 5.64688C5.99921 5.78002 6.08091 5.9255 6.0588 6.12127C6.02901 6.38954 5.78582 6.59024 5.52534 6.5434C5.13173 6.47337 4.74052 6.39299 4.33105 6.31359C4.33105 6.45069 4.33105 6.57298 4.33105 6.69528C4.33105 7.59377 4.33057 8.49177 4.33153 9.39026C4.33201 9.96131 4.6939 10.3376 5.25428 10.3395C6.33995 10.3435 7.42563 10.3371 8.5113 10.3425C9.1034 10.3455 9.64312 10.8021 9.76807 11.3894C9.89591 11.9891 9.61428 12.6035 9.0688 12.8599C8.89963 12.9393 8.70162 12.9901 8.51659 12.9916C7.04115 13.002 5.56571 13.0015 4.09027 12.9961C2.85464 12.9911 1.76705 11.9161 1.7459 10.6453C1.72283 9.2798 1.73821 7.91332 1.73677 6.54734C1.73581 6.47534 1.73581 6.40285 1.73581 6.31507Z" fill="#00B4FF"/>
</svg>
