<svg width="50" height="50" viewBox="0 0 50 50" fill="none" xmlns="http://www.w3.org/2000/svg">
<path d="M25 31.25C28.4518 31.25 31.25 28.4518 31.25 25C31.25 21.5482 28.4518 18.75 25 18.75C21.5482 18.75 18.75 21.5482 18.75 25C18.75 28.4518 21.5482 31.25 25 31.25Z" stroke="#1B6086" stroke-width="2" stroke-linecap="round" stroke-linejoin="round"/>
<path d="M40.4166 31.25C40.1393 31.8784 40.0566 32.5754 40.1791 33.2513C40.3017 33.9271 40.6239 34.5507 41.1041 35.0417L41.2291 35.1667C41.6165 35.5537 41.9239 36.0132 42.1336 36.519C42.3432 37.0249 42.4512 37.5671 42.4512 38.1146C42.4512 38.6622 42.3432 39.2044 42.1336 39.7102C41.9239 40.216 41.6165 40.6756 41.2291 41.0625C40.8422 41.4499 40.3826 41.7573 39.8768 41.967C39.371 42.1766 38.8288 42.2846 38.2812 42.2846C37.7337 42.2846 37.1915 42.1766 36.6856 41.967C36.1798 41.7573 35.7203 41.4499 35.3333 41.0625L35.2083 40.9375C34.7173 40.4573 34.0937 40.1351 33.4179 40.0125C32.742 39.89 32.045 39.9727 31.4166 40.25C30.8005 40.5141 30.2749 40.9526 29.9048 41.5116C29.5346 42.0705 29.336 42.7255 29.3333 43.3959V43.75C29.3333 44.8551 28.8943 45.9149 28.1129 46.6963C27.3315 47.4777 26.2717 47.9167 25.1666 47.9167C24.0616 47.9167 23.0018 47.4777 22.2204 46.6963C21.439 45.9149 21 44.8551 21 43.75V43.5625C20.9838 42.873 20.7606 42.2042 20.3594 41.6432C19.9581 41.0821 19.3973 40.6548 18.75 40.4167C18.1216 40.1394 17.4246 40.0567 16.7488 40.1792C16.0729 40.3017 15.4493 40.6239 14.9583 41.1042L14.8333 41.2292C14.4463 41.6166 13.9868 41.9239 13.481 42.1336C12.9752 42.3433 12.433 42.4512 11.8854 42.4512C11.3378 42.4512 10.7956 42.3433 10.2898 42.1336C9.78399 41.9239 9.32445 41.6166 8.93748 41.2292C8.55008 40.8422 8.24275 40.3827 8.03306 39.8769C7.82338 39.3711 7.71545 38.8289 7.71545 38.2813C7.71545 37.7337 7.82338 37.1915 8.03306 36.6857C8.24275 36.1799 8.55008 35.7203 8.93748 35.3334L9.06248 35.2084C9.54276 34.7174 9.86495 34.0938 9.98749 33.4179C10.11 32.7421 10.0273 32.0451 9.74998 31.4167C9.48589 30.8005 9.04739 30.275 8.48845 29.9048C7.92951 29.5347 7.27453 29.336 6.60415 29.3334H6.24998C5.14491 29.3334 4.0851 28.8944 3.3037 28.113C2.5223 27.3316 2.08331 26.2718 2.08331 25.1667C2.08331 24.0616 2.5223 23.0018 3.3037 22.2204C4.0851 21.439 5.14491 21 6.24998 21H6.43748C7.12705 20.9839 7.79582 20.7607 8.35685 20.3594C8.91788 19.9582 9.34522 19.3974 9.58331 18.75C9.86064 18.1217 9.94336 17.4246 9.82082 16.7488C9.69828 16.073 9.3761 15.4494 8.89581 14.9584L8.77081 14.8334C8.38341 14.4464 8.07608 13.9869 7.8664 13.481C7.65671 12.9752 7.54879 12.433 7.54879 11.8855C7.54879 11.3379 7.65671 10.7957 7.8664 10.2899C8.07608 9.78405 8.38341 9.32451 8.77081 8.93754C9.15778 8.55014 9.61732 8.24281 10.1231 8.03313C10.629 7.82344 11.1712 7.71551 11.7187 7.71551C12.2663 7.71551 12.8085 7.82344 13.3143 8.03313C13.8201 8.24281 14.2797 8.55014 14.6666 8.93754L14.7916 9.06254C15.2826 9.54283 15.9063 9.86501 16.5821 9.98755C17.2579 10.1101 17.9549 10.0274 18.5833 9.75004H18.75C19.3662 9.48595 19.8917 9.04745 20.2618 8.48851C20.632 7.92957 20.8306 7.2746 20.8333 6.60421V6.25004C20.8333 5.14497 21.2723 4.08516 22.0537 3.30376C22.8351 2.52236 23.8949 2.08337 25 2.08337C26.105 2.08337 27.1649 2.52236 27.9463 3.30376C28.7277 4.08516 29.1666 5.14497 29.1666 6.25004V6.43754C29.1693 7.10793 29.368 7.76291 29.7381 8.32184C30.1083 8.88078 30.6338 9.31929 31.25 9.58337C31.8783 9.8607 32.5754 9.94342 33.2512 9.82088C33.927 9.69834 34.5506 9.37616 35.0416 8.89587L35.1666 8.77087C35.5536 8.38347 36.0132 8.07614 36.519 7.86646C37.0248 7.65677 37.567 7.54885 38.1146 7.54885C38.6621 7.54885 39.2043 7.65677 39.7101 7.86646C40.216 8.07614 40.6755 8.38347 41.0625 8.77087C41.4499 9.15785 41.7572 9.61738 41.9669 10.1232C42.1766 10.629 42.2845 11.1712 42.2845 11.7188C42.2845 12.2664 42.1766 12.8086 41.9669 13.3144C41.7572 13.8202 41.4499 14.2797 41.0625 14.6667L40.9375 14.7917C40.4572 15.2827 40.135 15.9063 40.0125 16.5821C39.8899 17.258 39.9727 17.955 40.25 18.5834V18.75C40.5141 19.3662 40.9526 19.8917 41.5115 20.2619C42.0704 20.6321 42.7254 20.8307 43.3958 20.8334H43.75C44.855 20.8334 45.9149 21.2724 46.6963 22.0538C47.4777 22.8352 47.9166 23.895 47.9166 25C47.9166 26.1051 47.4777 27.1649 46.6963 27.9463C45.9149 28.7277 44.855 29.1667 43.75 29.1667H43.5625C42.8921 29.1694 42.2371 29.368 41.6782 29.7382C41.1192 30.1083 40.6807 30.6339 40.4166 31.25V31.25Z" stroke="#1B6086" stroke-width="2" stroke-linecap="round" stroke-linejoin="round"/>
</svg>
