<svg width="100" height="106" viewBox="0 0 100 106" fill="none" xmlns="http://www.w3.org/2000/svg">
<path d="M21.4677 17.9827C22.0595 13.8812 24.1592 10.1687 27.305 7.66199C30.4507 5.15526 34.3848 4.05962 38.2418 4.61611C42.0989 5.17259 45.5628 7.33561 47.8717 10.6293C50.1806 13.9231 51.1452 18.0777 50.5535 22.1792C51.1452 18.0777 53.245 14.3652 56.3907 11.8584C59.5365 9.35172 63.4706 8.25608 67.3276 8.81257C71.1846 9.36905 74.6486 11.5321 76.9574 14.8258C79.2663 18.1195 80.231 22.2741 79.6392 26.3757L79.6339 26.4128C79.5714 26.8458 79.3929 28.083 78.9719 29.4367L90.8273 31.1472C92.3701 31.3698 93.7557 32.235 94.6792 33.5525C95.6028 34.87 95.9886 36.5318 95.7519 38.1725L94.8594 44.3584C94.6227 45.999 93.7828 47.484 92.5245 48.4867C91.2662 49.4894 89.6926 49.9277 88.1498 49.7051L6.70965 37.955C5.16685 37.7324 3.78126 36.8672 2.85771 35.5497C1.93416 34.2322 1.54829 32.5704 1.785 30.9297L2.6775 24.7438C2.91421 23.1032 3.75409 21.6182 5.0124 20.6155C6.2707 19.6128 7.84435 19.1745 9.38715 19.3971L21.2425 21.1076C21.2346 20.0752 21.3082 19.0423 21.4624 18.0199L21.4677 17.9827ZM27.2342 21.9721L44.2901 24.4329L44.7363 21.3399C44.9121 20.1214 44.8605 18.8822 44.5844 17.6932C44.3083 16.5042 43.8132 15.3885 43.1272 14.41C42.4413 13.4315 41.578 12.6092 40.5866 11.9901C39.5952 11.3711 38.4952 10.9674 37.3493 10.8021C36.2035 10.6367 35.0342 10.713 33.9082 11.0266C32.7823 11.3402 31.7218 11.8849 30.7872 12.6296C29.8526 13.3743 29.0623 14.3045 28.4614 15.367C27.8604 16.4295 27.4607 17.6035 27.2849 18.822C27.209 19.3478 27.0519 20.5187 27.1629 21.5198C27.1765 21.6723 27.2004 21.8235 27.2342 21.9721ZM55.9244 26.1115L72.9803 28.5723C73.0541 28.4389 73.1197 28.3007 73.1765 28.1586C73.5659 27.2296 73.7462 26.0622 73.8221 25.5364C74.1771 23.0754 73.5983 20.5827 72.213 18.6064C70.8277 16.6302 68.7493 15.3324 66.4351 14.9985C64.1209 14.6646 61.7604 15.322 59.873 16.826C57.9855 18.3301 56.7257 20.5576 56.3706 23.0185L55.9244 26.1115Z" fill="#1B6086"/>
<path d="M90.5993 49.1487V96.0237C90.5993 98.5101 89.6116 100.895 87.8534 102.653C86.0953 104.411 83.7107 105.399 81.2243 105.399H53.0993V49.1487H90.5993ZM12.4743 105.399C9.98788 105.399 7.60331 104.411 5.84516 102.653C4.087 100.895 3.09928 98.5101 3.09928 96.0237V49.1487H40.5993V105.399H12.4743Z" fill="#1B6086"/>
</svg>
