<svg width="100" height="100" viewBox="0 0 100 100" fill="none" xmlns="http://www.w3.org/2000/svg">
<path d="M29 63.905C29.74 72.24 36.565 78.155 46.955 78.92V85H52.17V78.92C63.52 78.025 70.56 71.73 70.56 62.42C70.56 54.47 65.825 49.87 55.78 47.28L52.17 46.345V27.335C57.78 27.885 61.565 30.905 62.52 35.415H69.87C69.04 27.415 62.17 21.675 52.17 21.04V15H46.955V21.165C37.26 22.315 30.605 28.525 30.605 36.945C30.605 44.215 35.435 49.36 43.91 51.53L46.96 52.34V72.495C41.215 71.645 37.26 68.495 36.305 63.905H29ZM45.955 44.725C40.74 43.41 37.955 40.6 37.955 36.645C37.955 31.925 41.475 28.44 46.955 27.505V44.98L45.955 44.73V44.725ZM53.91 54.085C60.345 55.7 63.17 58.38 63.17 62.93C63.17 68.415 59.04 72.07 52.17 72.625V53.65L53.91 54.08V54.085Z" fill="#1B6086"/>
<path fill-rule="evenodd" clip-rule="evenodd" d="M6.25 50C6.25 61.6032 10.8594 72.7312 19.0641 80.9359C27.2688 89.1406 38.3968 93.75 50 93.75C61.6032 93.75 72.7312 89.1406 80.9359 80.9359C89.1406 72.7312 93.75 61.6032 93.75 50C93.75 38.3968 89.1406 27.2688 80.9359 19.0641C72.7312 10.8594 61.6032 6.25 50 6.25C38.3968 6.25 27.2688 10.8594 19.0641 19.0641C10.8594 27.2688 6.25 38.3968 6.25 50ZM100 50C100 63.2608 94.7322 75.9785 85.3553 85.3553C75.9785 94.7322 63.2608 100 50 100C36.7392 100 24.0215 94.7322 14.6447 85.3553C5.26784 75.9785 0 63.2608 0 50C0 36.7392 5.26784 24.0215 14.6447 14.6447C24.0215 5.26784 36.7392 0 50 0C63.2608 0 75.9785 5.26784 85.3553 14.6447C94.7322 24.0215 100 36.7392 100 50Z" fill="#1B6086"/>
</svg>
