<svg width="20" height="15" viewBox="0 0 20 15" fill="none" xmlns="http://www.w3.org/2000/svg">
<path d="M0 7.40237C0 7.64647 0.118479 7.87107 0.333878 8.05667L7.48519 14.541C7.71136 14.7266 7.93754 14.8047 8.18525 14.8047C8.72376 14.8047 9.13303 14.4532 9.13303 13.9649C9.13303 13.7403 9.03609 13.5059 8.86371 13.3496L6.46204 11.1231L2.82176 8.12497L5.43889 8.28127H19.0522C19.6122 8.28127 20 7.91017 20 7.40237C20 6.89457 19.6122 6.53317 19.0522 6.53317H5.43889L2.83253 6.67967L6.46204 3.68164L8.86371 1.46485C9.0469 1.29883 9.13303 1.07422 9.13303 0.83985C9.13303 0.36133 8.72376 0 8.18525 0C7.93754 0 7.7006 0.0878902 7.46365 0.29297L0.333878 6.74807C0.118479 6.94337 0 7.16797 0 7.40237Z" fill="white"/>
</svg>
